<svg width="32" height="32" viewBox="0 0 32 32" fill="none" xmlns="http://www.w3.org/2000/svg">
<g clip-path="url(#clip0)">
<path fill-rule="evenodd" clip-rule="evenodd" d="M28.0904 0C30.2482 0 32 1.75188 32 3.90963V28.0904C32 30.2481 30.2481 32 28.0904 32H3.90963C1.75188 32 0 30.2481 0 28.0904V3.90963C0 1.75188 1.75181 0 3.90963 0H28.0904V0ZM12.2199 26.534C20.7161 26.534 25.3617 19.4938 25.3617 13.3923C25.3617 13.1911 25.3617 12.9899 25.3521 12.7984C26.2525 12.1471 27.0379 11.3329 27.6606 10.4038C26.8368 10.7678 25.946 11.0168 25.0073 11.1318C25.9652 10.557 26.6931 9.65663 27.0379 8.57425C26.1472 9.10106 25.1606 9.48425 24.1069 9.69494C23.264 8.79456 22.0667 8.239 20.7353 8.239C18.1874 8.239 16.1184 10.308 16.1184 12.8559C16.1184 13.2199 16.1567 13.5743 16.2429 13.9095C12.4019 13.7179 9.00156 11.8789 6.72188 9.08194C6.32913 9.762 6.09925 10.557 6.09925 11.3999C6.09925 12.9996 6.91344 14.4172 8.15862 15.2409C7.40194 15.2217 6.69312 15.0111 6.0705 14.6662V14.7237C6.0705 16.9651 7.66056 18.8233 9.77744 19.2543C9.39431 19.3597 8.98244 19.4172 8.56094 19.4172C8.264 19.4172 7.97669 19.3884 7.68931 19.3309C8.27363 21.1701 9.97856 22.5014 11.9996 22.5397C10.4192 23.7754 8.42688 24.5129 6.26213 24.5129C5.88856 24.5129 5.52456 24.4938 5.16056 24.4459C7.18163 25.7677 9.61456 26.534 12.2199 26.534Z" fill="black"/>
</g>
<defs>
<clipPath id="clip0">
<!-- <rect width="32" height="32" fill="white"/>  -->
<circle fill="white" cx="16" cy="16" r="16" />
</clipPath>
</defs>
</svg>
